<svg xmlns="http://www.w3.org/2000/svg" version="1.1" xmlns:xlink="http://www.w3.org/1999/xlink" xmlns:svgjs="http://svgjs.com/svgjs" width="1440" height="560" preserveAspectRatio="none" viewBox="0 0 1440 560"><g mask="url(&quot;#SvgjsMask1172&quot;)" fill="none"><rect width="1440" height="560" x="0" y="0" fill="rgba(227, 164, 69, 1)"></rect><use xlink:href="#SvgjsG1177" transform="translate(0, 0)" fill="rgba(181, 135, 65, 1)"></use><use xlink:href="#SvgjsG1177" transform="translate(0, 480)" fill="rgba(181, 135, 65, 1)"></use><use xlink:href="#SvgjsG1177" transform="translate(480, 0)" fill="rgba(181, 135, 65, 1)"></use><use xlink:href="#SvgjsG1177" transform="translate(480, 480)" fill="rgba(181, 135, 65, 1)"></use><use xlink:href="#SvgjsG1177" transform="translate(960, 0)" fill="rgba(181, 135, 65, 1)"></use><use xlink:href="#SvgjsG1177" transform="translate(960, 480)" fill="rgba(181, 135, 65, 1)"></use></g><defs><mask id="SvgjsMask1172"><rect width="1440" height="560" fill="#ffffff"></rect></mask><g id="SvgjsG1175"><path d="M15.769 13.134v-0.004s-3.022-3.019-3.024-3.02a0.605 0.605 0 0 0-0.858 0.002L10.496 11.509c-0.541 0.541-1.238 0.061-2.577-1.031-0.886-0.722-1.905-1.693-2.788-2.788-0.62-0.768-1.168-1.575-0.602-2.141 0.001-0.001 1.397-1.393 1.398-1.395l0.001-0.003c0.251-0.25 0.226-0.634-0.003-0.862v-0.004L2.813 0.177c-0.24-0.239-0.623-0.234-0.858 0.002L0.553 1.58C-0.024 2.303-1.307 5.747 4.194 11.385c5.795 5.94 9.534 4.669 10.177 3.999 0 0 1.4-1.383 1.4-1.384l0.001-0.003c0.251-0.251 0.225-0.635-0.002-0.864z"></path></g><g id="SvgjsG1176"><path d="M16 14.068H0V2h16v12.068z m-14.107-1.117h12.214L10.088 8.837l-0.761 0.766c-0.33 0.329-0.801 0.518-1.297 0.517l-0.008 0c-0.498-0.002-0.971-0.195-1.299-0.529l-0.773-0.783-4.057 4.144zM1.116 3.916v8.233L5.165 8.014 1.116 3.916zM10.874 8.045l4.01 4.104V4.008l-4.01 4.037zM1.896 3.117l5.622 5.691c0.122 0.124 0.307 0.195 0.508 0.195h0.003c0.198 0 0.388-0.07 0.506-0.189L14.196 3.116H1.896z"></path></g><g id="SvgjsG1174"><path d="M8 2.022C3.815 2.022 0.422 4.579 0.422 7.733c0 1.544 0.814 2.944 2.135 3.972l0.003 3.427 3.961-1.798c0.479 0.071 0.973 0.11 1.48 0.11 4.185 0 7.578-2.557 7.578-5.711 0-3.154-3.392-5.711-7.577-5.711zM4.81 8.933a1.067 1.067 0 1 1 0-2.133 1.067 1.067 0 0 1 0 2.133z m3.186 0a1.067 1.067 0 1 1 0-2.133 1.067 1.067 0 0 1 0 2.133z m3.143 0c-0.589 0-1.067-0.478-1.067-1.066s0.477-1.067 1.067-1.067 1.067 0.478 1.067 1.067a1.067 1.067 0 0 1-1.067 1.066z"></path></g><g id="SvgjsG1173"><path d="M8 1.076C3.594 1.076 0.023 3.767 0.023 7.088c0 1.625 0.857 3.099 2.248 4.181l0.003 3.607 4.168-1.892c0.504 0.075 1.025 0.115 1.558 0.116 4.406 0 7.976-2.692 7.976-6.012C15.976 3.767 12.406 1.076 8 1.076z" fill-rule="evenodd"></path></g><g id="SvgjsG1177"><use xlink:href="#SvgjsG1173" transform="translate(0, 0) scale(2)" fill="rgba(181, 135, 65, 1)"></use><use xlink:href="#SvgjsG1173" transform="translate(0, 48) scale(2)" fill="rgba(181, 135, 65, 1)"></use><use xlink:href="#SvgjsG1173" transform="translate(0, 96) scale(2)" fill="rgba(181, 135, 65, 1)"></use><use xlink:href="#SvgjsG1174" transform="translate(0, 144) scale(2)" fill="rgba(181, 135, 65, 1)"></use><use xlink:href="#SvgjsG1175" transform="translate(0, 192) scale(2)" fill="rgba(181, 135, 65, 1)"></use><use xlink:href="#SvgjsG1173" transform="translate(0, 240) scale(2)" fill="rgba(181, 135, 65, 1)"></use><use xlink:href="#SvgjsG1173" transform="translate(0, 288) scale(2)" fill="rgba(181, 135, 65, 1)"></use><use xlink:href="#SvgjsG1175" transform="translate(0, 336) scale(2)" fill="rgba(181, 135, 65, 1)"></use><use xlink:href="#SvgjsG1175" transform="translate(0, 384) scale(2)" fill="rgba(181, 135, 65, 1)"></use><use xlink:href="#SvgjsG1175" transform="translate(0, 432) scale(2)" fill="rgba(181, 135, 65, 1)"></use><use xlink:href="#SvgjsG1175" transform="translate(48, 0) scale(2)" fill="rgba(181, 135, 65, 1)"></use><use xlink:href="#SvgjsG1173" transform="translate(48, 48) scale(2)" fill="rgba(181, 135, 65, 1)"></use><use xlink:href="#SvgjsG1176" transform="translate(48, 96) scale(2)" fill="rgba(181, 135, 65, 1)"></use><use xlink:href="#SvgjsG1173" transform="translate(48, 144) scale(2)" fill="rgba(181, 135, 65, 1)"></use><use xlink:href="#SvgjsG1176" transform="translate(48, 192) scale(2)" fill="rgba(181, 135, 65, 1)"></use><use xlink:href="#SvgjsG1174" transform="translate(48, 240) scale(2)" fill="rgba(181, 135, 65, 1)"></use><use xlink:href="#SvgjsG1175" transform="translate(48, 288) scale(2)" fill="rgba(181, 135, 65, 1)"></use><use xlink:href="#SvgjsG1176" transform="translate(48, 336) scale(2)" fill="rgba(181, 135, 65, 1)"></use><use xlink:href="#SvgjsG1175" transform="translate(48, 384) scale(2)" fill="rgba(181, 135, 65, 1)"></use><use xlink:href="#SvgjsG1174" transform="translate(48, 432) scale(2)" fill="rgba(181, 135, 65, 1)"></use><use xlink:href="#SvgjsG1176" transform="translate(96, 0) scale(2)" fill="rgba(181, 135, 65, 1)"></use><use xlink:href="#SvgjsG1174" transform="translate(96, 48) scale(2)" fill="rgba(181, 135, 65, 1)"></use><use xlink:href="#SvgjsG1173" transform="translate(96, 96) scale(2)" fill="rgba(181, 135, 65, 1)"></use><use xlink:href="#SvgjsG1176" transform="translate(96, 144) scale(2)" fill="rgba(181, 135, 65, 1)"></use><use xlink:href="#SvgjsG1175" transform="translate(96, 192) scale(2)" fill="rgba(181, 135, 65, 1)"></use><use xlink:href="#SvgjsG1174" transform="translate(96, 240) scale(2)" fill="rgba(181, 135, 65, 1)"></use><use xlink:href="#SvgjsG1174" transform="translate(96, 288) scale(2)" fill="rgba(181, 135, 65, 1)"></use><use xlink:href="#SvgjsG1173" transform="translate(96, 336) scale(2)" fill="rgba(181, 135, 65, 1)"></use><use xlink:href="#SvgjsG1174" transform="translate(96, 384) scale(2)" fill="rgba(181, 135, 65, 1)"></use><use xlink:href="#SvgjsG1176" transform="translate(96, 432) scale(2)" fill="rgba(181, 135, 65, 1)"></use><use xlink:href="#SvgjsG1176" transform="translate(144, 0) scale(2)" fill="rgba(181, 135, 65, 1)"></use><use xlink:href="#SvgjsG1175" transform="translate(144, 48) scale(2)" fill="rgba(181, 135, 65, 1)"></use><use xlink:href="#SvgjsG1175" transform="translate(144, 96) scale(2)" fill="rgba(181, 135, 65, 1)"></use><use xlink:href="#SvgjsG1173" transform="translate(144, 144) scale(2)" fill="rgba(181, 135, 65, 1)"></use><use xlink:href="#SvgjsG1173" transform="translate(144, 192) scale(2)" fill="rgba(181, 135, 65, 1)"></use><use xlink:href="#SvgjsG1173" transform="translate(144, 240) scale(2)" fill="rgba(181, 135, 65, 1)"></use><use xlink:href="#SvgjsG1173" transform="translate(144, 288) scale(2)" fill="rgba(181, 135, 65, 1)"></use><use xlink:href="#SvgjsG1174" transform="translate(144, 336) scale(2)" fill="rgba(181, 135, 65, 1)"></use><use xlink:href="#SvgjsG1175" transform="translate(144, 384) scale(2)" fill="rgba(181, 135, 65, 1)"></use><use xlink:href="#SvgjsG1175" transform="translate(144, 432) scale(2)" fill="rgba(181, 135, 65, 1)"></use><use xlink:href="#SvgjsG1173" transform="translate(192, 0) scale(2)" fill="rgba(181, 135, 65, 1)"></use><use xlink:href="#SvgjsG1173" transform="translate(192, 48) scale(2)" fill="rgba(181, 135, 65, 1)"></use><use xlink:href="#SvgjsG1175" transform="translate(192, 96) scale(2)" fill="rgba(181, 135, 65, 1)"></use><use xlink:href="#SvgjsG1175" transform="translate(192, 144) scale(2)" fill="rgba(181, 135, 65, 1)"></use><use xlink:href="#SvgjsG1174" transform="translate(192, 192) scale(2)" fill="rgba(181, 135, 65, 1)"></use><use xlink:href="#SvgjsG1173" transform="translate(192, 240) scale(2)" fill="rgba(181, 135, 65, 1)"></use><use xlink:href="#SvgjsG1175" transform="translate(192, 288) scale(2)" fill="rgba(181, 135, 65, 1)"></use><use xlink:href="#SvgjsG1174" transform="translate(192, 336) scale(2)" fill="rgba(181, 135, 65, 1)"></use><use xlink:href="#SvgjsG1175" transform="translate(192, 384) scale(2)" fill="rgba(181, 135, 65, 1)"></use><use xlink:href="#SvgjsG1174" transform="translate(192, 432) scale(2)" fill="rgba(181, 135, 65, 1)"></use><use xlink:href="#SvgjsG1176" transform="translate(240, 0) scale(2)" fill="rgba(181, 135, 65, 1)"></use><use xlink:href="#SvgjsG1175" transform="translate(240, 48) scale(2)" fill="rgba(181, 135, 65, 1)"></use><use xlink:href="#SvgjsG1174" transform="translate(240, 96) scale(2)" fill="rgba(181, 135, 65, 1)"></use><use xlink:href="#SvgjsG1175" transform="translate(240, 144) scale(2)" fill="rgba(181, 135, 65, 1)"></use><use xlink:href="#SvgjsG1173" transform="translate(240, 192) scale(2)" fill="rgba(181, 135, 65, 1)"></use><use xlink:href="#SvgjsG1176" transform="translate(240, 240) scale(2)" fill="rgba(181, 135, 65, 1)"></use><use xlink:href="#SvgjsG1176" transform="translate(240, 288) scale(2)" fill="rgba(181, 135, 65, 1)"></use><use xlink:href="#SvgjsG1176" transform="translate(240, 336) scale(2)" fill="rgba(181, 135, 65, 1)"></use><use xlink:href="#SvgjsG1173" transform="translate(240, 384) scale(2)" fill="rgba(181, 135, 65, 1)"></use><use xlink:href="#SvgjsG1173" transform="translate(240, 432) scale(2)" fill="rgba(181, 135, 65, 1)"></use><use xlink:href="#SvgjsG1173" transform="translate(288, 0) scale(2)" fill="rgba(181, 135, 65, 1)"></use><use xlink:href="#SvgjsG1174" transform="translate(288, 48) scale(2)" fill="rgba(181, 135, 65, 1)"></use><use xlink:href="#SvgjsG1173" transform="translate(288, 96) scale(2)" fill="rgba(181, 135, 65, 1)"></use><use xlink:href="#SvgjsG1176" transform="translate(288, 144) scale(2)" fill="rgba(181, 135, 65, 1)"></use><use xlink:href="#SvgjsG1176" transform="translate(288, 192) scale(2)" fill="rgba(181, 135, 65, 1)"></use><use xlink:href="#SvgjsG1175" transform="translate(288, 240) scale(2)" fill="rgba(181, 135, 65, 1)"></use><use xlink:href="#SvgjsG1174" transform="translate(288, 288) scale(2)" fill="rgba(181, 135, 65, 1)"></use><use xlink:href="#SvgjsG1175" transform="translate(288, 336) scale(2)" fill="rgba(181, 135, 65, 1)"></use><use xlink:href="#SvgjsG1175" transform="translate(288, 384) scale(2)" fill="rgba(181, 135, 65, 1)"></use><use xlink:href="#SvgjsG1174" transform="translate(288, 432) scale(2)" fill="rgba(181, 135, 65, 1)"></use><use xlink:href="#SvgjsG1176" transform="translate(336, 0) scale(2)" fill="rgba(181, 135, 65, 1)"></use><use xlink:href="#SvgjsG1175" transform="translate(336, 48) scale(2)" fill="rgba(181, 135, 65, 1)"></use><use xlink:href="#SvgjsG1173" transform="translate(336, 96) scale(2)" fill="rgba(181, 135, 65, 1)"></use><use xlink:href="#SvgjsG1174" transform="translate(336, 144) scale(2)" fill="rgba(181, 135, 65, 1)"></use><use xlink:href="#SvgjsG1174" transform="translate(336, 192) scale(2)" fill="rgba(181, 135, 65, 1)"></use><use xlink:href="#SvgjsG1176" transform="translate(336, 240) scale(2)" fill="rgba(181, 135, 65, 1)"></use><use xlink:href="#SvgjsG1174" transform="translate(336, 288) scale(2)" fill="rgba(181, 135, 65, 1)"></use><use xlink:href="#SvgjsG1173" transform="translate(336, 336) scale(2)" fill="rgba(181, 135, 65, 1)"></use><use xlink:href="#SvgjsG1173" transform="translate(336, 384) scale(2)" fill="rgba(181, 135, 65, 1)"></use><use xlink:href="#SvgjsG1175" transform="translate(336, 432) scale(2)" fill="rgba(181, 135, 65, 1)"></use><use xlink:href="#SvgjsG1174" transform="translate(384, 0) scale(2)" fill="rgba(181, 135, 65, 1)"></use><use xlink:href="#SvgjsG1174" transform="translate(384, 48) scale(2)" fill="rgba(181, 135, 65, 1)"></use><use xlink:href="#SvgjsG1176" transform="translate(384, 96) scale(2)" fill="rgba(181, 135, 65, 1)"></use><use xlink:href="#SvgjsG1175" transform="translate(384, 144) scale(2)" fill="rgba(181, 135, 65, 1)"></use><use xlink:href="#SvgjsG1173" transform="translate(384, 192) scale(2)" fill="rgba(181, 135, 65, 1)"></use><use xlink:href="#SvgjsG1173" transform="translate(384, 240) scale(2)" fill="rgba(181, 135, 65, 1)"></use><use xlink:href="#SvgjsG1173" transform="translate(384, 288) scale(2)" fill="rgba(181, 135, 65, 1)"></use><use xlink:href="#SvgjsG1174" transform="translate(384, 336) scale(2)" fill="rgba(181, 135, 65, 1)"></use><use xlink:href="#SvgjsG1174" transform="translate(384, 384) scale(2)" fill="rgba(181, 135, 65, 1)"></use><use xlink:href="#SvgjsG1174" transform="translate(384, 432) scale(2)" fill="rgba(181, 135, 65, 1)"></use><use xlink:href="#SvgjsG1174" transform="translate(432, 0) scale(2)" fill="rgba(181, 135, 65, 1)"></use><use xlink:href="#SvgjsG1173" transform="translate(432, 48) scale(2)" fill="rgba(181, 135, 65, 1)"></use><use xlink:href="#SvgjsG1175" transform="translate(432, 96) scale(2)" fill="rgba(181, 135, 65, 1)"></use><use xlink:href="#SvgjsG1173" transform="translate(432, 144) scale(2)" fill="rgba(181, 135, 65, 1)"></use><use xlink:href="#SvgjsG1174" transform="translate(432, 192) scale(2)" fill="rgba(181, 135, 65, 1)"></use><use xlink:href="#SvgjsG1173" transform="translate(432, 240) scale(2)" fill="rgba(181, 135, 65, 1)"></use><use xlink:href="#SvgjsG1174" transform="translate(432, 288) scale(2)" fill="rgba(181, 135, 65, 1)"></use><use xlink:href="#SvgjsG1174" transform="translate(432, 336) scale(2)" fill="rgba(181, 135, 65, 1)"></use><use xlink:href="#SvgjsG1173" transform="translate(432, 384) scale(2)" fill="rgba(181, 135, 65, 1)"></use><use xlink:href="#SvgjsG1175" transform="translate(432, 432) scale(2)" fill="rgba(181, 135, 65, 1)"></use></g></defs></svg>