<svg xmlns="http://www.w3.org/2000/svg" version="1.1" xmlns:xlink="http://www.w3.org/1999/xlink" xmlns:svgjs="http://svgjs.com/svgjs" width="1440" height="560" preserveAspectRatio="none" viewBox="0 0 1440 560"><g mask="url(&quot;#SvgjsMask1342&quot;)" fill="none"><rect width="1440" height="560" x="0" y="0" fill="url(#SvgjsLinearGradient1343)"></rect><path d="M 0,88 C 96,114 288,220.6 480,218 C 672,215.4 768,68 960,75 C 1152,82 1344,217.4 1440,253L1440 560L0 560z" fill="rgba(160, 116, 49, 1)"></path><path d="M 0,456 C 96,433.8 288,336.4 480,345 C 672,353.6 768,503.2 960,499 C 1152,494.8 1344,359 1440,324L1440 560L0 560z" fill="rgba(227, 164, 69, 1)"></path></g><defs><mask id="SvgjsMask1342"><rect width="1440" height="560" fill="#ffffff"></rect></mask><linearGradient x1="15.28%" y1="-39.29%" x2="84.72%" y2="139.29%" gradientUnits="userSpaceOnUse" id="SvgjsLinearGradient1343"><stop stop-color="rgba(160, 116, 49, 0.91)" offset="0"></stop><stop stop-color="rgba(227, 164, 69, 0.9098039215686274)" offset="0.82"></stop></linearGradient></defs></svg>